<svg id="_x33_0" enable-background="new 0 0 64 64" height="512" viewBox="0 0 64 64" width="512" xmlns="http://www.w3.org/2000/svg"><g><g><path d="m14.585 34.999c1.711-1.455 3.813-2.481 6.156-2.894l3.568-.63c1.623-.286 2.904-1.539 3.227-3.155l.298-1.49h.017c-2.306-1.403-3.851-3.933-3.851-6.83v-.536-.019c-1.191-.693-2-1.968-2-3.445 0-1.489.823-2.772 2.029-3.461v-.021c.191-1.571 1.304-2.899 2.855-3.343l2.791-.798-.045-.064c1.263 1.339 2.885 2.316 4.709 2.772l3.661.915c2.209 0 4 1.791 4 4 0 1.479-.812 2.755-2.005 3.448l.005.016v.536c0 2.897-1.545 5.427-3.851 6.831h.017l.298 1.49c.323 1.616 1.604 2.868 3.227 3.155l3.568.63c2.342.413 4.444 1.439 6.156 2.894l.01-.01c1.016-1.016 1.575-2.366 1.575-3.802 0-1.683-.804-3.29-2.15-4.3l-.639-.479c-.758-.57-1.211-1.475-1.211-2.423 0-.447.131-.88.378-1.251l.621-.932c.655-.98 1.001-2.125 1.001-3.348 0-1.15-.338-2.266-.977-3.225l-.351-.525c-.44-.659-.672-1.427-.672-2.219v-.486c0-6.065-4.935-11-11-11h-8c-6.065 0-11 4.935-11 11v.486c0 .792-.232 1.56-.671 2.218l-.352.527c-.639.958-.977 2.074-.977 3.261 0 1.186.346 2.331 1.001 3.313l.621.931c.247.37.378.803.378 1.25 0 .947-.453 1.853-1.211 2.422l-.639.479c-1.346 1.01-2.15 2.617-2.15 4.3 0 1.437.559 2.786 1.573 3.799z" fill="#f0bc5e"/></g><g><path d="m32 25c1.615 0 3.067-.897 3.789-2.342l.105-.211-1.789-.895-.105.212c-.381.762-1.147 1.236-2 1.236s-1.619-.474-2-1.236l-.105-.211-1.789.895.105.211c.722 1.444 2.174 2.341 3.789 2.341z"/><path d="m28.2 56.399 3.8 2.851 3.8-2.85c.751-.563 1.2-1.46 1.2-2.4 0-1.654-1.346-3-3-3h-.121c-.687 0-1.34.221-1.879.628-.539-.407-1.192-.628-1.879-.628h-.121c-1.654 0-3 1.346-3 3 0 .94.449 1.837 1.2 2.399zm1.8-3.399h.121c.3 0 .581.116.793.328l1.086 1.086 1.086-1.086c.212-.212.493-.328.793-.328h.121c.551 0 1 .448 1 1 0 .313-.149.612-.4.8l-2.6 1.95-2.601-1.951c-.25-.187-.399-.486-.399-.799 0-.552.449-1 1-1z"/><path d="m43.433 31.12-3.568-.63c-1.227-.217-2.177-1.146-2.421-2.366l-.169-.847c2.252-1.638 3.725-4.285 3.725-7.277v-.026c1.207-.914 2-2.348 2-3.974 0-2.687-2.135-4.87-4.796-4.979l-3.623-.905c-1.588-.397-3.011-1.225-4.128-2.37l-1.636-2.321-1.712 1.023c.243.486.521.95.83 1.388l-1.325.378c-1.77.506-3.085 1.935-3.478 3.703-1.286.906-2.132 2.395-2.132 4.083 0 1.627.793 3.061 2 3.974v.026c0 2.992 1.473 5.639 3.725 7.277l-.169.847c-.244 1.221-1.194 2.149-2.421 2.366l-3.568.63c-6.702 1.183-11.567 6.982-11.567 13.787v6.143c0 3.281 2.669 5.95 5.95 5.95.228 0 .454-.016.678-.042l-.628.628c-.645.646-1 1.503-1 2.414s.355 1.769 1 2.414l.586.586h32.828l.586-.586c.645-.646 1-1.503 1-2.414s-.355-1.769-1-2.414l-.628-.628c.224.026.45.042.678.042 3.281 0 5.95-2.669 5.95-5.95v-6.143c0-6.805-4.865-12.604-11.567-13.787zm-2.433-15.12c0 1.654-1.346 3-3 3s-3-1.346-3-3 1.346-3 3-3 3 1.346 3 3zm-13.84-5.862 2.228-.638c1.312 1.223 2.925 2.109 4.708 2.555l.667.167c-.828.711-1.436 1.67-1.662 2.779h-2.202c-.465-2.279-2.484-4-4.899-4-.085 0-.164.021-.248.025.368-.415.85-.729 1.408-.888zm-1.16 2.862c1.654 0 3 1.346 3 3s-1.346 3-3 3-3-1.346-3-3 1.346-3 3-3zm-.935 7.906c.304.057.615.094.935.094 2.414 0 4.434-1.721 4.899-4h2.202c.465 2.279 2.484 4 4.899 4 .32 0 .631-.037.935-.094-.447 3.432-3.383 6.094-6.935 6.094s-6.488-2.662-6.935-6.094zm6.935 8.094c1.219 0 2.381-.246 3.443-.687l.041.204c.187.938.633 1.764 1.25 2.426l-.325 1.3c-.112.445-.511.757-.971.757h-6.877c-.459 0-.859-.312-.97-.757l-.325-1.301c.617-.662 1.063-1.488 1.25-2.426l.041-.204c1.062.442 2.224.688 3.443.688zm-16 31c0-.378.147-.732.414-1l.707-.707c.567-.566.879-1.32.879-2.121v-.019c.415-.249.806-.545 1.157-.896l3.843-3.843v9.586h-6.586c-.267-.268-.414-.623-.414-1zm10.955-15h2.045v2h-2.274c.168-.488.274-1 .274-1.532.001-.159-.029-.312-.045-.468zm10.319 2h-2.274v-2h2.045c-.016.156-.046.31-.046.469.001.531.107 1.043.275 1.531zm-6.274 0v-2h2v2zm-5.585 2h13.17l.415.414v11.586h-14v-11.585zm14.376-1.623c-.51-.511-.791-1.189-.791-1.909 0-.659.257-1.278.724-1.743.972-.97 2.674-.915 3.648.059l1.216 1.216-3.588 3.586zm1.881-8.463-4.086 4.086h-3.172l5.672-5.672c.212-.212.493-.328.793-.328.618 0 1.121.503 1.121 1.121 0 .295-.12.584-.328.793zm-15.258 4.086-4.086-4.086c-.208-.209-.328-.498-.328-.793 0-.618.503-1.121 1.121-1.121.3 0 .581.116.793.328l5.672 5.672zm-2.137.725c.467.464.723 1.084.723 1.742 0 .722-.281 1.399-.791 1.91l-1.209 1.209-3.587-3.587 1.216-1.216c.974-.974 2.677-1.029 3.648-.058zm22.602 14.568.706.707c.268.268.415.622.415 1s-.147.732-.414 1h-6.586v-9.586l3.843 3.842c.351.351.742.647 1.157.896v.019c0 .802.312 1.556.879 2.122zm6.121-7.243c0 2.178-1.772 3.95-3.95 3.95-1.055 0-2.047-.411-2.793-1.157l-3.843-3.843 3.586-3.586 4.292 4.294 1.414-1.414-3.706-3.709v-6.585h-2v4.584l-1.214-1.215c-.678-.679-1.53-1.117-2.455-1.286l.755-.755c.581-.581.914-1.385.914-2.207 0-1.721-1.4-3.121-3.121-3.121-.834 0-1.618.324-2.207.914l-6.672 6.672-6.672-6.672c-.589-.59-1.373-.914-2.207-.914-1.721 0-3.121 1.4-3.121 3.121 0 .822.333 1.626.914 2.207l.755.755c-.924.169-1.776.607-2.454 1.286l-1.215 1.215v-4.584h-2v6.585l-3.707 3.708 1.414 1.414 4.293-4.293 3.586 3.586-3.844 3.843c-.745.746-1.737 1.157-2.792 1.157-2.178 0-3.95-1.772-3.95-3.95v-6.143c0-5.834 4.17-10.804 9.915-11.818l3.568-.63c.359-.063.697-.175 1.024-.308l.144.578c.335 1.336 1.532 2.271 2.911 2.271h6.877c1.379 0 2.576-.935 2.911-2.272l.144-.577c.327.133.665.245 1.024.308l3.568.63c5.744 1.015 9.914 5.984 9.914 11.818z"/></g></g></svg>